<?xml version="1.0" encoding="UTF-8"?> <svg xmlns="http://www.w3.org/2000/svg" xmlns:xlink="http://www.w3.org/1999/xlink" width="130.344" height="139.319" viewBox="0 0 130.344 139.319"><defs><clipPath id="clip-path"><rect width="130.344" height="139.319" fill="none"></rect></clipPath></defs><g id="Groupe_5" data-name="Groupe 5" clip-path="url(#clip-path)"><g id="Groupe_5-2" data-name="Groupe 5" transform="translate(281.398 156.191)"><g id="Groupe_1" data-name="Groupe 1" transform="translate(-281.393 -34.31)"><path id="Tracé_1" data-name="Tracé 1" d="M-281.393-13.956v-6.177h1.571v6.177Z" transform="translate(281.393 20.201)" fill="#ecb14c"></path><path id="Tracé_2" data-name="Tracé 2" d="M-272.962-13.956l-2.841-3.8v3.8h-1.474v-6.177h1.387l2.849,3.813v-3.813h1.465v6.177Z" transform="translate(280.966 20.201)" fill="#ecb14c"></path><path id="Tracé_3" data-name="Tracé 3" d="M-265.76-18.871v4.915h-1.569v-4.915h-1.845v-1.27h5.276v1.27Z" transform="translate(280.126 20.202)" fill="#ecb14c"></path><path id="Tracé_4" data-name="Tracé 4" d="M-259.982-18.9v1.225h2.946v1.237h-2.946v1.244h3.361v1.234h-4.93v-6.177h4.836V-18.9Z" transform="translate(279.335 20.201)" fill="#ecb14c"></path><path id="Tracé_5" data-name="Tracé 5" d="M-251.128-15.695h-1.234v1.739h-1.571v-6.177h2.763c1.632,0,2.567.777,2.567,2.151A2.057,2.057,0,0,1-249.722-16l1.3,2.039h-1.784Zm-.043-1.234a.939.939,0,0,0,1.067-.787.911.911,0,0,0,.008-.21c0-.644-.4-.97-1.076-.97h-1.192v1.966Z" transform="translate(278.546 20.201)" fill="#ecb14c"></path><path id="Tracé_6" data-name="Tracé 6" d="M-241.506-13.956l-2.841-3.8v3.8h-1.474v-6.177h1.387l2.849,3.813v-3.813h1.465v6.177Z" transform="translate(277.704 20.201)" fill="#ecb14c"></path><path id="Tracé_7" data-name="Tracé 7" d="M-235.771-15.092l-.448,1.139h-1.613l2.664-6.177h1.613l2.6,6.177h-1.677l-.438-1.139Zm1.355-3.479-.9,2.286h1.784Z" transform="translate(276.876 20.201)" fill="#ecb14c"></path><path id="Tracé_8" data-name="Tracé 8" d="M-226.475-18.871v4.915h-1.569v-4.915h-1.842v-1.27h5.276v1.27Z" transform="translate(276.052 20.202)" fill="#ecb14c"></path><path id="Tracé_9" data-name="Tracé 9" d="M-222.27-13.956v-6.177h1.569v6.177Z" transform="translate(275.262 20.201)" fill="#ecb14c"></path><path id="Tracé_10" data-name="Tracé 10" d="M-211.93-17.058a3.346,3.346,0,0,1-3.131,3.548,3.346,3.346,0,0,1-3.548-3.13,3.346,3.346,0,0,1,3.131-3.548c.068,0,.136-.006.205-.006a3.185,3.185,0,0,1,3.34,3.023C-211.931-17.135-211.93-17.1-211.93-17.058ZM-217-17.05a1.791,1.791,0,0,0,1.739,1.844h.008a1.837,1.837,0,0,0,1.925-1.745,1.837,1.837,0,0,0-1.744-1.926A1.839,1.839,0,0,0-217-17.132C-217-17.105-217-17.078-217-17.05Z" transform="translate(274.883 20.208)" fill="#ecb14c"></path><path id="Tracé_11" data-name="Tracé 11" d="M-204.928-13.956l-2.841-3.8v3.8h-1.474v-6.177h1.387l2.849,3.813v-3.813h1.461v6.177Z" transform="translate(273.911 20.201)" fill="#ecb14c"></path><path id="Tracé_12" data-name="Tracé 12" d="M-199.2-15.092l-.448,1.139h-1.613l2.664-6.177h1.613l2.6,6.177h-1.677l-.44-1.139Zm1.36-3.476-.9,2.286h1.782Z" transform="translate(273.083 20.201)" fill="#ecb14c"></path><path id="Tracé_13" data-name="Tracé 13" d="M-187.763-15.272v1.315h-4.194v-6.177h1.571v4.862Z" transform="translate(272.119 20.201)" fill="#ecb14c"></path><path id="Tracé_14" data-name="Tracé 14" d="M-177.433-19.522l-.592,1.225A4.6,4.6,0,0,0-180-18.939c-.407,0-.681.15-.681.448,0,1.067,3.266.458,3.266,2.689,0,1.237-1.094,1.889-2.471,1.889a4.608,4.608,0,0,1-2.822-.986l.608-1.209a3.856,3.856,0,0,0,2.232.927c.495,0,.807-.187.807-.538,0-1.094-3.265-.44-3.265-2.629,0-1.137.98-1.862,2.461-1.862A4.628,4.628,0,0,1-177.433-19.522Z" transform="translate(271.159 20.209)" fill="#ecb14c"></path><path id="Tracé_15" data-name="Tracé 15" d="M-169.527-19.15l-.91,1.076a2.108,2.108,0,0,0-1.552-.807A1.8,1.8,0,0,0-173.713-17a1.806,1.806,0,0,0,1.724,1.724A2.324,2.324,0,0,0-170.437-16l.917.97a3.727,3.727,0,0,1-2.549,1.129,3.154,3.154,0,0,1-3.241-3.062,3.153,3.153,0,0,1,3.062-3.241c.077,0,.155,0,.232,0A3.586,3.586,0,0,1-169.527-19.15Z" transform="translate(270.393 20.208)" fill="#ecb14c"></path><path id="Tracé_16" data-name="Tracé 16" d="M-162.938-13.956v-2.4h-2.557v2.4h-1.571v-6.177h1.571v2.541h2.557v-2.541h1.571v6.177Z" transform="translate(269.538 20.201)" fill="#ecb14c"></path><path id="Tracé_17" data-name="Tracé 17" d="M-152.117-17.058a3.347,3.347,0,0,1-3.131,3.549,3.347,3.347,0,0,1-3.55-3.13,3.347,3.347,0,0,1,3.131-3.55c.069,0,.137-.006.206-.006a3.185,3.185,0,0,1,3.341,3.022C-152.119-17.135-152.118-17.1-152.117-17.058Zm-5.073.008a1.791,1.791,0,0,0,1.739,1.844h.008a1.838,1.838,0,0,0,1.925-1.745,1.837,1.837,0,0,0-1.744-1.926,1.839,1.839,0,0,0-1.926,1.745C-157.189-17.105-157.19-17.078-157.19-17.05Z" transform="translate(268.681 20.208)" fill="#ecb14c"></path><path id="Tracé_18" data-name="Tracé 18" d="M-143.334-17.058a3.347,3.347,0,0,1-3.131,3.549,3.347,3.347,0,0,1-3.55-3.13,3.347,3.347,0,0,1,3.131-3.55c.068,0,.136-.006.2-.006a3.186,3.186,0,0,1,3.342,3.022C-143.336-17.135-143.335-17.1-143.334-17.058Zm-5.075.008a1.8,1.8,0,0,0,1.748,1.845h0a1.837,1.837,0,0,0,1.923-1.747,1.837,1.837,0,0,0-1.746-1.924,1.838,1.838,0,0,0-1.924,1.747C-148.408-17.1-148.409-17.077-148.409-17.05Z" transform="translate(267.77 20.208)" fill="#ecb14c"></path><path id="Tracé_19" data-name="Tracé 19" d="M-136.459-15.272v1.315h-4.191v-6.177h1.571v4.862Z" transform="translate(266.798 20.201)" fill="#ecb14c"></path></g><g id="Groupe_3" data-name="Groupe 3" transform="translate(-281.393 -56.859)"><g id="Groupe_2" data-name="Groupe 2" transform="translate(0 2.764)"><path id="Tracé_20" data-name="Tracé 20" d="M-281.393-42.011h3.227V-30.7h6.991v2.629h-10.218Z" transform="translate(281.393 42.256)" fill="#ecb14c"></path><path id="Tracé_21" data-name="Tracé 21" d="M-254.948-30.656v2.588h-10.8V-42.011H-255.2v2.589h-7.33v3.029h6.473v2.51h-6.473v3.227Z" transform="translate(279.771 42.256)" fill="#ecb14c"></path><path id="Tracé_22" data-name="Tracé 22" d="M-231.215-28.067-233.9-31.95h-2.968v3.883H-240.1V-42.011h6.035c3.725,0,6.056,1.932,6.056,5.06a4.536,4.536,0,0,1-2.868,4.4l3.127,4.482Zm-3.028-11.314h-2.629v4.861h2.629c1.972,0,2.969-.917,2.969-2.431,0-1.534-1-2.431-2.97-2.431Z" transform="translate(277.111 42.256)" fill="#ecb14c"></path><path id="Tracé_23" data-name="Tracé 23" d="M-210.743-30.656v2.588h-10.8V-42.011H-211v2.589h-7.332v3.029h6.475v2.51h-6.475v3.227Z" transform="translate(275.187 42.256)" fill="#ecb14c"></path><path id="Tracé_24" data-name="Tracé 24" d="M-195.129-35.287h2.948v5.662a9.627,9.627,0,0,1-5.638,1.772c-4.382,0-7.609-3.009-7.609-7.211s3.227-7.212,7.669-7.212a7.431,7.431,0,0,1,5.837,2.411l-2.072,1.913a4.709,4.709,0,0,0-3.6-1.574,4.462,4.462,0,0,0-4.589,4.332,4.462,4.462,0,0,0,4.333,4.589c.072,0,.143,0,.215,0a5.14,5.14,0,0,0,2.51-.6Z" transform="translate(273.516 42.284)" fill="#ecb14c"></path><path id="Tracé_25" data-name="Tracé 25" d="M-174.294-30.656v2.588h-10.8V-42.011h10.54v2.589h-7.332v3.029h6.475v2.51h-6.475v3.227Z" transform="translate(271.407 42.256)" fill="#ecb14c"></path><path id="Tracé_26" data-name="Tracé 26" d="M-155.167-42.011v13.944h-2.65l-6.953-8.466v8.466h-3.188V-42.011h2.67l6.933,8.466v-8.466Z" transform="translate(269.63 42.256)" fill="#ecb14c"></path><path id="Tracé_27" data-name="Tracé 27" d="M-145.068-39.382h-4.464v-2.629h12.152v2.629h-4.462v11.314h-3.227Z" transform="translate(267.72 42.256)" fill="#ecb14c"></path></g><rect id="Rectangle_2" data-name="Rectangle 2" width="10.532" height="1.719" transform="translate(53.645)" fill="#ecb14c"></rect></g><g id="Groupe_4" data-name="Groupe 4" transform="translate(-281.398 -22.458)"><path id="Tracé_28" data-name="Tracé 28" d="M-276.574-6.106l-.756.9a1.763,1.763,0,0,0-1.3-.668A1.5,1.5,0,0,0-280.054-4.3a1.5,1.5,0,0,0,1.429,1.43,1.938,1.938,0,0,0,1.3-.6l.764.807a3.115,3.115,0,0,1-2.122.938A2.625,2.625,0,0,1-281.4-4.27a2.623,2.623,0,0,1,2.538-2.708c.071,0,.142,0,.212,0A2.983,2.983,0,0,1-276.574-6.106Z" transform="translate(281.398 6.985)" fill="#ecb14c"></path><path id="Tracé_29" data-name="Tracé 29" d="M-272.805-3.227h-1.03V-1.78h-1.307V-6.923h2.3c1.36,0,2.139.646,2.139,1.793a1.715,1.715,0,0,1-.933,1.651l1.076,1.7h-1.484Zm-.037-1.028a.781.781,0,0,0,.889-.656.771.771,0,0,0,.007-.176c0-.538-.331-.807-.9-.807h-.993v1.639Z" transform="translate(280.749 6.979)" fill="#ecb14c"></path><path id="Tracé_30" data-name="Tracé 30" d="M-267.9-2.728l-.374.948h-1.344l2.22-5.143h1.344l2.167,5.143h-1.4l-.367-.948Zm1.131-2.894-.749,1.9h1.484Z" transform="translate(280.176 6.979)" fill="#ecb14c"></path><path id="Tracé_31" data-name="Tracé 31" d="M-258.9-1.78l-2.366-3.167V-1.78h-1.227V-6.923h1.153l2.373,3.174V-6.923h1.219V-1.78Z" transform="translate(279.437 6.979)" fill="#ecb14c"></path><path id="Tracé_32" data-name="Tracé 32" d="M-251.886-6.415l-.493,1.023a3.8,3.8,0,0,0-1.646-.538c-.337,0-.565.125-.565.376,0,.888,2.718.382,2.718,2.241,0,1.03-.912,1.574-2.061,1.574a3.836,3.836,0,0,1-2.35-.824l.506-1.007a3.209,3.209,0,0,0,1.86.771c.411,0,.668-.154.668-.448,0-.912-2.718-.366-2.718-2.189,0-.948.816-1.55,2.051-1.55A3.859,3.859,0,0,1-251.886-6.415Z" transform="translate(278.793 6.986)" fill="#ecb14c"></path><path id="Tracé_33" data-name="Tracé 33" d="M-250.491-3.344v-.8h1.94v.8Z" transform="translate(278.193 6.691)" fill="#ecb14c"></path><path id="Tracé_34" data-name="Tracé 34" d="M-242.6-1.78l-.008-3.344-1.235,2.83h-.852l-1.235-2.83V-1.78H-247.1V-6.931h1.434l1.395,3.065,1.4-3.065h1.425V-1.78Z" transform="translate(277.841 6.98)" fill="#ecb14c"></path><path id="Tracé_35" data-name="Tracé 35" d="M-234.255-4.364a2.786,2.786,0,0,1-2.6,2.96,2.786,2.786,0,0,1-2.96-2.6,2.786,2.786,0,0,1,2.6-2.96c.058,0,.117-.005.176-.005a2.651,2.651,0,0,1,2.781,2.515C-234.257-4.426-234.256-4.4-234.255-4.364Zm-4.226.008a1.5,1.5,0,0,0,1.456,1.534,1.53,1.53,0,0,0,1.6-1.456,1.529,1.529,0,0,0-1.455-1.6,1.529,1.529,0,0,0-1.6,1.455C-238.48-4.4-238.481-4.378-238.481-4.356Z" transform="translate(277.086 6.985)" fill="#ecb14c"></path><path id="Tracé_36" data-name="Tracé 36" d="M-229.047-1.78l-2.366-3.167V-1.78h-1.227V-6.923h1.153l2.373,3.174V-6.923h1.219V-1.78Z" transform="translate(276.342 6.979)" fill="#ecb14c"></path><path id="Tracé_37" data-name="Tracé 37" d="M-223.67-5.872V-1.78h-1.307V-5.872h-1.533V-6.931h4.392v1.059Z" transform="translate(275.706 6.98)" fill="#ecb14c"></path><path id="Tracé_38" data-name="Tracé 38" d="M-220.295-2.728l-.374.948h-1.344l2.22-5.143h1.344l2.167,5.143h-1.4l-.366-.948Zm1.131-2.894-.749,1.9h1.486Z" transform="translate(275.24 6.979)" fill="#ecb14c"></path><path id="Tracé_39" data-name="Tracé 39" d="M-211.294-1.78l-2.366-3.167V-1.78h-1.227V-6.923h1.153l2.374,3.174V-6.923h1.219V-1.78Z" transform="translate(274.501 6.979)" fill="#ecb14c"></path><path id="Tracé_40" data-name="Tracé 40" d="M-207.139-2.728l-.374.948h-1.344l2.22-5.143h1.344l2.167,5.143h-1.4l-.368-.948Zm1.131-2.894-.749,1.9h1.484Z" transform="translate(273.875 6.979)" fill="#ecb14c"></path><path id="Tracé_41" data-name="Tracé 41" d="M-195.665-6.415l-.493,1.023A3.8,3.8,0,0,0-197.8-5.93c-.337,0-.565.125-.565.376,0,.888,2.718.382,2.718,2.241,0,1.03-.912,1.574-2.061,1.574a3.836,3.836,0,0,1-2.35-.824l.506-1.007a3.209,3.209,0,0,0,1.86.771c.411,0,.668-.154.668-.448,0-.912-2.718-.366-2.718-2.189,0-.948.816-1.55,2.051-1.55A3.859,3.859,0,0,1-195.665-6.415Z" transform="translate(272.963 6.986)" fill="#ecb14c"></path><path id="Tracé_42" data-name="Tracé 42" d="M-189.766-1.78l-.955-3.556-.97,3.556h-1.352l-1.684-5.143h1.4l1.007,3.784.986-3.784h1.277l1.007,3.784.993-3.784h1.335l-1.7,5.143Z" transform="translate(272.41 6.979)" fill="#ecb14c"></path><path id="Tracé_43" data-name="Tracé 43" d="M-185.084-1.78V-6.923h1.309V-1.78Z" transform="translate(271.41 6.979)" fill="#ecb14c"></path><path id="Tracé_44" data-name="Tracé 44" d="M-179.947-5.872V-1.78h-1.307V-5.872h-1.536V-6.931h4.392v1.059Z" transform="translate(271.172 6.98)" fill="#ecb14c"></path><path id="Tracé_45" data-name="Tracé 45" d="M-175.659-2.816h2.793V-1.78H-177.4v-.837l2.755-3.27h-2.658V-6.923h4.4v.837Z" transform="translate(270.614 6.979)" fill="#ecb14c"></path><path id="Tracé_46" data-name="Tracé 46" d="M-170.019-5.9v1.023h2.454v1.028h-2.454v1.036h2.8v1.028h-4.1V-6.926h4.027V-5.9Z" transform="translate(269.983 6.98)" fill="#ecb14c"></path><path id="Tracé_47" data-name="Tracé 47" d="M-163.264-3.227h-1.03V-1.78H-165.6V-6.923h2.3c1.359,0,2.139.646,2.139,1.793a1.715,1.715,0,0,1-.933,1.651l1.076,1.7H-162.5Zm-.034-1.028a.781.781,0,0,0,.889-.656.77.77,0,0,0,.007-.176c0-.538-.331-.807-.9-.807h-.993v1.639Z" transform="translate(269.39 6.979)" fill="#ecb14c"></path><path id="Tracé_48" data-name="Tracé 48" d="M-155.976-2.874V-1.78h-3.489V-6.923h1.309v4.049Z" transform="translate(268.754 6.979)" fill="#ecb14c"></path><path id="Tracé_49" data-name="Tracé 49" d="M-153.544-2.728l-.374.948h-1.344l2.22-5.143h1.344l2.167,5.143h-1.4l-.366-.948Zm1.131-2.894-.749,1.9h1.486Z" transform="translate(268.318 6.979)" fill="#ecb14c"></path><path id="Tracé_50" data-name="Tracé 50" d="M-144.542-1.78l-2.366-3.167V-1.78h-1.227V-6.923h1.153l2.37,3.177V-6.92h1.219v5.143Z" transform="translate(267.579 6.979)" fill="#ecb14c"></path><path id="Tracé_51" data-name="Tracé 51" d="M-139.281-6.924a2.528,2.528,0,0,1,2.726,2.316,2.443,2.443,0,0,1,.008.256,2.557,2.557,0,0,1-2.532,2.58c-.084,0-.169,0-.253-.01h-2.159V-6.924Zm-.9,4.1h.935a1.389,1.389,0,0,0,1.379-1.4c0-.041,0-.083-.006-.124a1.426,1.426,0,0,0-1.313-1.531c-.04,0-.081,0-.121,0h-.875Z" transform="translate(266.89 6.98)" fill="#ecb14c"></path></g><path id="Tracé_52" data-name="Tracé 52" d="M-229.065-105.919l1.369,2-3.24,2.217,1.694,2.475,5.716-3.909-4.756-6.953L-234-106.178l1.692,2.476Zm13.758,29.433,2.4,2.395,2.4-2.395-2.4-2.4Zm-25.823-22.2,2.4,2.4,2.4-2.4-2.4-2.4Zm22.095-7.449-10.619-16.048-2.5,1.655,10.619,16.044ZM-234.378-119l-5.716,3.909,1.692,2.477,3.241-2.217,1.369,2-3.24,2.214,1.694,2.477,5.716-3.909Zm43.9,10.862,1.692-2.477-3.241-2.214,1.37-2,3.24,2.217,1.692-2.477L-191.44-119l-4.756,6.954Zm-20.032-13.34-2.4-2.4-2.4,2.4,2.4,2.4Zm-38.919-34.714v54.825a36.238,36.238,0,0,0,36.2,36.2h.651a36.24,36.24,0,0,0,36.2-36.2v-54.825Zm70.048,54.825a33.237,33.237,0,0,1-33.2,33.2h-.651a33.236,33.236,0,0,1-33.2-33.2v-32.671l18.45.048a14.391,14.391,0,0,1,8.257,2.629l6.812,4.771,6.812-4.771a14.4,14.4,0,0,1,8.257-2.629l18.458-.048Zm0-35.673-18.458.048a17.383,17.383,0,0,0-9.969,3.172l-5.1,3.572L-218-133.812a17.384,17.384,0,0,0-9.97-3.172l-18.458-.048v-3.453l20.068.043a14.4,14.4,0,0,1,8.594,2.868l4.861,3.6,4.862-3.6a14.389,14.389,0,0,1,8.592-2.868l20.072-.043Zm0-6.448-20.077.043a17.371,17.371,0,0,0-10.372,3.457l-3.075,2.28-3.075-2.28a17.366,17.366,0,0,0-10.372-3.457l-20.077-.043v-3.37l21.56.045a14.556,14.556,0,0,1,9.08,3.243l2.883,2.33,2.883-2.33a14.548,14.548,0,0,1,9.082-3.243l21.561-.045Zm0-6.372-21.563.045a17.563,17.563,0,0,0-10.962,3.909l-1,.807-1-.807a17.563,17.563,0,0,0-10.96-3.909l-21.566-.045v-3.333h67.045Zm-10.1,51.174,2.4,2.4,2.4-2.4-2.4-2.4Zm-10.2,1.8a9.008,9.008,0,0,0-5.5.7l-5.907-8.637,12.866-18.816-2.475-1.692-12.212,17.854-12.209-17.852-2.476,1.692,12.866,18.816-5.907,8.637a9.069,9.069,0,0,0-11.326,3.11,9.093,9.093,0,0,0,2.5,12.615,9.094,9.094,0,0,0,12.511-2.348h0a9.1,9.1,0,0,0-1.211-11.682l5.248-7.675,5.251,7.675a9.1,9.1,0,0,0-1.212,11.682h0a9.094,9.094,0,0,0,12.64,2.371,9.093,9.093,0,0,0,2.372-12.64,9.089,9.089,0,0,0-5.827-3.8Zm-19.737,12.378a6.1,6.1,0,0,1-8.471,1.592,6.1,6.1,0,0,1-1.593-8.471,6.1,6.1,0,0,1,8.472-1.593l0,0a6.1,6.1,0,0,1,1.585,8.471Zm21.5,1.591a6.1,6.1,0,0,1-8.5-1.438,6.1,6.1,0,0,1,1.437-8.5c.06-.042.12-.083.182-.124a6.033,6.033,0,0,1,3.427-1.067,6.094,6.094,0,0,1,6.109,6.08,6.1,6.1,0,0,1-2.657,5.048Zm-6.363-21.561,10.619-16.044-2.5-1.658-10.618,16.044Zm1.992,1.344,5.716,3.909,1.692-2.475-3.24-2.217,1.369-2,3.24,2.217,1.692-2.476-5.714-3.909Z" transform="translate(-3.315)" fill="#ecb14c"></path></g></g></svg> 